<?xml version="1.0" encoding="UTF-8"?> <svg xmlns="http://www.w3.org/2000/svg" width="147" height="147" viewBox="0 0 147 147" fill="none"> <path d="M136.019 73.7906L145.462 74.1552L145.344 77.2049L135.901 76.8403L135.883 77.3159L145.564 77.6897C145.615 76.3607 145.666 75.0317 145.718 73.7027L136.037 73.3289L136.019 73.7906Z" fill="#7482A6"></path> <path d="M135.977 78.9718L141.57 79.5997L141.376 81.3248C141.453 81.3898 141.531 81.4549 141.594 81.5183L141.806 79.6262L145.131 79.9995L144.889 82.1559C144.965 82.2349 145.027 82.3122 145.102 82.3912L145.419 79.5669L135.792 78.4862L135.475 81.3104C135.566 81.2502 135.657 81.19 135.735 81.1283L135.977 78.9718Z" fill="#7482A6"></path> <path d="M141.199 87.9839C142.863 88.3012 144.468 87.2106 144.785 85.5466C144.846 85.2303 144.851 84.9035 144.81 84.5963L135.293 82.7812L135.207 83.235L138.906 83.9406C138.847 84.1004 138.805 84.2491 138.776 84.4003C138.458 86.0643 139.549 87.6691 141.199 87.9839ZM141.288 87.5163C139.762 87.2251 138.742 85.8476 139.009 84.4449C139.038 84.2936 139.084 84.1312 139.14 83.9852L144.586 85.0239C144.598 85.1831 144.58 85.3507 144.552 85.502C144.284 86.9047 142.815 87.8074 141.288 87.5163Z" fill="#7482A6"></path> <path d="M134.364 88.4532L139.796 89.9253L139.342 91.6009C139.409 91.6769 139.475 91.7529 139.528 91.8253L140.026 89.9875L143.255 90.8627L142.688 92.9572C142.751 93.0467 142.8 93.1326 142.863 93.2221L143.606 90.4791L134.255 87.9451L133.512 90.6881C133.611 90.6425 133.711 90.5969 133.797 90.5477L134.364 88.4532Z" fill="#7482A6"></path> <path d="M137.448 97.4238C137.456 98.2479 137.966 99.0048 138.78 99.3067C139.843 99.7011 141.031 99.1561 141.425 98.0929C141.664 97.4497 141.558 96.7684 141.204 96.2339L140.55 96.1854C141.165 96.6224 141.441 97.3669 141.202 98.0101C140.896 98.8371 139.891 99.211 138.946 98.8604C138.014 98.5147 137.496 97.576 137.803 96.749L137.579 96.6663C137.078 98.0182 135.484 98.6515 134.027 98.111C132.57 97.5706 131.775 96.0511 132.277 94.6992C132.578 93.8853 133.293 93.329 134.154 93.1407C134.448 93.0709 134.781 93.0599 135.112 93.0931C135.02 92.9394 134.941 92.7906 134.848 92.6369C134.671 92.6309 134.498 92.6561 134.319 92.6945C133.316 92.9045 132.446 93.5974 132.067 94.6213C131.477 96.2095 132.273 97.9681 133.862 98.5573C135.201 99.054 136.67 98.5539 137.448 97.4238Z" fill="#7482A6"></path> <path d="M137.973 106.027C137.893 105.844 137.807 105.674 137.728 105.492C135.335 103.318 132.942 101.145 130.529 98.9769L130.421 99.1886C131.345 100.025 132.256 100.855 133.167 101.685L131.862 104.226C130.657 103.969 129.451 103.711 128.239 103.435L128.016 103.871C131.326 104.596 134.656 105.314 137.973 106.027ZM133.353 101.844L137.26 105.393L132.106 104.272L133.353 101.844Z" fill="#7482A6"></path> <path d="M133.66 112.704C133.693 112.808 133.714 112.905 133.748 113.009L135.273 110.611L127.1 105.411L126.851 105.801C129.509 107.491 132.167 109.182 134.824 110.873L133.66 112.704Z" fill="#7482A6"></path> <path d="M127.888 116.191C129.246 117.202 131.166 116.921 132.178 115.562C132.37 115.304 132.517 115.012 132.614 114.717L124.843 108.933L124.567 109.304L127.588 111.552C127.465 111.67 127.362 111.785 127.27 111.909C126.258 113.268 126.54 115.188 127.888 116.191ZM128.172 115.809C126.925 114.881 126.608 113.197 127.461 112.051C127.553 111.928 127.664 111.801 127.779 111.694L132.226 115.004C132.168 115.153 132.079 115.296 131.987 115.42C131.134 116.565 129.418 116.737 128.172 115.809Z" fill="#7482A6"></path> <path d="M125.845 123.01L123.222 117.819L128.574 119.966L128.883 119.622L122.912 117.222L121.146 113.739L120.987 113.916L122.598 117.09L122.898 117.698L125.686 123.187L125.845 123.01Z" fill="#7482A6"></path> <path d="M118.654 124.643C118.277 125.376 118.376 126.283 118.955 126.93C119.712 127.774 121.017 127.845 121.861 127.088C122.372 126.63 122.596 125.978 122.532 125.34L121.976 124.993C122.316 125.666 122.213 126.453 121.703 126.911C121.046 127.5 119.983 127.362 119.31 126.612C118.646 125.872 118.625 124.8 119.282 124.211L119.123 124.034C118.05 124.996 116.344 124.814 115.307 123.657C114.27 122.5 114.274 120.785 115.348 119.823C115.994 119.243 116.885 119.084 117.735 119.318C118.028 119.394 118.327 119.539 118.605 119.723C118.595 119.544 118.594 119.375 118.584 119.196C118.43 119.108 118.265 119.05 118.089 119.001C117.103 118.719 116.011 118.927 115.198 119.656C113.937 120.787 113.822 122.714 114.953 123.975C115.906 125.038 117.439 125.28 118.654 124.643Z" fill="#7482A6"></path> <path d="M114.9 127.74L114.755 132.585L115.003 132.403L115.143 127.857L117.261 130.748L117.634 130.475L111.907 122.661L111.534 122.934L114.571 127.078L109.129 124.697L108.688 125.02L114.9 127.74Z" fill="#7482A6"></path> <path d="M110.161 135.722C110.192 135.526 110.21 135.336 110.24 135.139C109.375 132.024 108.51 128.909 107.627 125.789L107.422 125.91C107.757 127.11 108.085 128.298 108.413 129.487L105.954 130.939C105.071 130.079 104.189 129.218 103.311 128.338L102.889 128.587C105.303 130.966 107.736 133.35 110.161 135.722ZM108.486 129.72L109.896 134.806L106.135 131.109L108.486 129.72Z" fill="#7482A6"></path> <path d="M97.4271 141.56L94.4474 133.796L100.661 140.139L100.786 140.271L100.93 140.216L97.4636 131.184L97.2545 131.264L100.229 139.015L94.0209 132.685L93.8823 132.558L93.7386 132.614L97.2049 141.645L97.4271 141.56Z" fill="#7482A6"></path> <path d="M92.1597 133.356L93.7588 138.766L92.094 139.258C92.0601 139.341 92.0302 139.438 92.0003 139.534L93.8263 138.994L94.7707 142.19L92.6896 142.805C92.6463 142.905 92.603 143.006 92.5557 143.093L95.2812 142.287L92.5353 132.996L89.8098 133.802C89.9008 133.863 89.9917 133.923 90.0787 133.971L92.1597 133.356Z" fill="#7482A6"></path> <path d="M89.6684 143.914L90.1504 143.826C88.7074 140.76 87.2506 137.696 85.7939 134.632C85.7114 134.804 85.6151 134.978 85.5164 135.138C85.4161 136.38 85.3134 137.609 85.2132 138.851C84.6247 137.578 84.0249 136.322 83.4251 135.065C83.3289 135.239 83.2326 135.413 83.1476 135.571C82.8853 138.807 82.6205 142.029 82.3556 145.251L82.6035 145.206C82.8547 142.143 83.0922 139.082 83.3409 136.005C83.9432 137.276 84.543 138.532 85.1427 139.789C85.0079 141.465 84.873 143.14 84.7381 144.816L84.9723 144.773C85.0935 143.256 85.2147 141.74 85.3498 140.221C85.9997 141.596 86.6497 142.972 87.2997 144.347L87.7817 144.259C86.9937 142.596 86.2082 140.946 85.4202 139.283C85.5204 138.041 85.6232 136.812 85.7234 135.57C87.0447 138.36 88.3634 141.136 89.6684 143.914Z" fill="#7482A6"></path> <path d="M60.2826 140.019C60.1929 140.429 60.0573 140.744 59.8758 140.962C59.6833 141.187 59.4611 141.33 59.2092 141.389C58.9482 141.447 58.6764 141.445 58.3937 141.383C58.1111 141.321 57.8677 141.211 57.6637 141.052C57.4596 140.892 57.3171 140.67 57.2362 140.385C57.1532 140.109 57.1566 139.766 57.2463 139.355C57.334 138.954 57.4741 138.641 57.6667 138.415C57.8572 138.199 58.0795 138.057 58.3333 137.988C58.5852 137.928 58.8525 137.929 59.1351 137.991C59.4178 138.053 59.6657 138.164 59.8788 138.326C60.0809 138.494 60.2234 138.716 60.3063 138.992C60.3782 139.276 60.3703 139.618 60.2826 140.019Z" fill="#7482A6"></path> <path d="M40.271 126.914L35.1397 134.85L32.5768 133.192L37.7081 125.257L37.3084 124.998L32.0479 133.134C33.1647 133.856 34.2816 134.578 35.3984 135.3L40.659 127.165L40.271 126.914Z" fill="#7482A6"></path> <path d="M35.8142 124.21L32.421 128.7L31.036 127.653C30.9407 127.687 30.8453 127.72 30.7585 127.742L32.2775 128.89L30.2602 131.559L28.5289 130.251C28.4224 130.276 28.3244 130.29 28.2179 130.314L30.4852 132.028L36.3262 124.299L34.0589 122.585C34.0641 122.694 34.0693 122.804 34.0829 122.902L35.8142 124.21Z" fill="#7482A6"></path> <path d="M25.4612 124.148C24.3396 125.418 24.4594 127.355 25.7289 128.476C25.9702 128.689 26.2486 128.861 26.5338 128.982L32.9483 121.721L32.602 121.416L30.1086 124.238C30.0012 124.106 29.8951 123.993 29.7796 123.891C28.5101 122.77 26.5735 122.889 25.4612 124.148ZM25.8179 124.464C26.8468 123.299 28.5519 123.124 29.6221 124.07C29.7375 124.172 29.8541 124.293 29.951 124.416L26.2803 128.571C26.1371 128.501 26.0019 128.4 25.8865 128.298C24.8163 127.352 24.789 125.628 25.8179 124.464Z" fill="#7482A6"></path> <path d="M28.6077 118.089L24.585 122.025L23.3709 120.784C23.2717 120.803 23.1725 120.822 23.0833 120.831L24.4149 122.192L22.0232 124.532L20.5056 122.981C20.3966 122.989 20.2977 122.988 20.1887 122.997L22.1762 125.028L29.1009 118.253L27.1134 116.222C27.1023 116.33 27.0912 116.439 27.0901 116.538L28.6077 118.089Z" fill="#7482A6"></path> <path d="M19.2866 116.158C18.5723 115.746 17.661 115.803 16.988 116.351C16.1088 117.067 15.976 118.367 16.6922 119.246C17.1255 119.778 17.7662 120.033 18.4066 119.999L18.7801 119.46C18.0919 119.767 17.31 119.628 16.8768 119.096C16.3197 118.412 16.5072 117.357 17.2887 116.72C18.0593 116.092 19.131 116.122 19.688 116.806L19.8726 116.655C18.9618 115.537 19.2245 113.843 20.4294 112.861C21.6342 111.88 23.347 111.965 24.2577 113.083C24.8059 113.756 24.9232 114.654 24.6486 115.492C24.5593 115.781 24.4001 116.073 24.2035 116.342C24.3828 116.34 24.5512 116.347 24.7305 116.346C24.8253 116.196 24.8917 116.034 24.9492 115.861C25.2773 114.889 25.1211 113.788 24.4314 112.942C23.3615 111.628 21.4421 111.422 20.1287 112.492C19.0216 113.394 18.7071 114.914 19.2866 116.158Z" fill="#7482A6"></path> <path d="M11.6722 112.343C11.8697 112.367 12.0598 112.379 12.2573 112.402C15.3423 111.435 18.4273 110.468 21.5165 109.481L21.3887 109.28C20.2001 109.655 19.0232 110.022 17.8464 110.389L16.3132 107.98C17.1444 107.069 17.9755 106.159 18.826 105.253L18.5629 104.839C16.2649 107.33 13.9626 109.84 11.6722 112.343ZM17.6155 110.47L12.5795 112.048L16.15 108.167L17.6155 110.47Z" fill="#7482A6"></path> <path d="M8.10037 105.26C7.99366 105.237 7.89941 105.206 7.79271 105.182L9.09125 107.71L17.7089 103.284L17.4978 102.873C14.6958 104.312 11.8938 105.751 9.09186 107.191L8.10037 105.26Z" fill="#7482A6"></path> <path d="M8.01186 98.5128C6.45168 99.1727 5.72252 100.971 6.38242 102.531C6.50786 102.828 6.68487 103.102 6.88966 103.335L15.8124 99.5609L15.6324 99.1354L12.1639 100.602C12.1242 100.437 12.0771 100.29 12.0171 100.148C11.3572 98.5875 9.55915 97.8584 8.01186 98.5128ZM8.19728 98.9512C9.62853 98.3459 11.2417 98.9252 11.7979 100.24C11.8579 100.382 11.9105 100.542 11.9447 100.695L6.83863 102.855C6.73995 102.729 6.66161 102.58 6.60162 102.438C6.04534 101.123 6.76604 99.5566 8.19728 98.9512Z" fill="#7482A6"></path> <path d="M3.14864 93.2258L8.95189 93.6079L4.38118 97.1236L4.52048 97.5641L9.62433 93.6449L13.5213 93.8956L13.4495 93.6687L9.89758 93.441L9.22092 93.3907L3.07688 92.9989L3.14864 93.2258Z" fill="#7482A6"></path> <path d="M5.39556 86.1891C4.95716 85.4912 4.12572 85.114 3.27435 85.2831C2.16209 85.5041 1.43585 86.5904 1.65683 87.7027C1.7905 88.3755 2.23737 88.9005 2.81909 89.1703L3.40155 88.869C2.64932 88.8187 2.02394 88.3291 1.89026 87.6563C1.7184 86.7912 2.37843 85.9464 3.36711 85.75C4.34205 85.5563 5.27489 86.0846 5.44676 86.9497L5.6802 86.9034C5.39921 85.489 6.42509 84.1147 7.9493 83.8119C9.47351 83.5091 10.9468 84.3869 11.2278 85.8012C11.3969 86.6526 11.0801 87.5006 10.4451 88.112C10.2306 88.3259 9.95308 88.5095 9.65362 88.6547C9.81276 88.7372 9.95817 88.8225 10.1173 88.9051C10.2712 88.8174 10.4059 88.705 10.5378 88.5789C11.2828 87.8742 11.6603 86.8286 11.4475 85.7576C11.1174 84.096 9.51807 83.015 7.85654 83.3451C6.45592 83.6233 5.46596 84.8191 5.39556 86.1891Z" fill="#7482A6"></path> <path d="M4.63968 81.3865L0.548408 78.7862L0.578053 79.0928L4.41491 81.5349L0.847551 81.8798L0.892018 82.3397L10.535 81.4072L10.4906 80.9474L5.37643 81.4419L10.2036 77.9792L10.151 77.4357L4.63968 81.3865Z" fill="#7482A6"></path> <path d="M0.184158 73.1352C0.33767 73.2618 0.491237 73.3744 0.644749 73.501C3.76348 74.3531 6.88222 75.2051 10.015 76.0432L10.0159 75.8052C8.81318 75.4786 7.62443 75.152 6.43568 74.8254L6.44671 71.9694C7.63794 71.652 8.82917 71.3346 10.0344 71.0312L10.0362 70.5412C6.75692 71.3966 3.46354 72.2659 0.184158 73.1352ZM6.1979 74.7685L1.10723 73.3768L6.20844 72.0385L6.1979 74.7685Z" fill="#7482A6"></path> <path d="M1.63296 59.2764L9.83 60.678L1.20396 62.7823L1.02656 62.823L1.00061 62.9747L10.5362 64.6052L10.574 64.3844L2.39073 62.9852L11.003 60.8785L11.1827 60.824L11.2087 60.6722L1.67307 59.0418L1.63296 59.2764Z" fill="#7482A6"></path> <path d="M11.3684 58.9073L5.89578 57.5352L6.31796 55.8513C6.26368 55.78 6.19582 55.7052 6.12796 55.6305L5.66493 57.4773L2.43296 56.667L2.96068 54.5622C2.89622 54.4739 2.83177 54.3855 2.78089 54.3006L2.08975 57.0573L11.4869 59.4133L12.178 56.6566C12.0795 56.7041 11.981 56.7516 11.8961 56.8024L11.3684 58.9073Z" fill="#7482A6"></path> <path d="M3.5433 51.3402L3.37288 51.7996C6.74625 52.1251 10.1245 52.4376 13.5027 52.75C13.3973 52.5914 13.2967 52.4197 13.2093 52.2529C12.1924 51.5323 11.1887 50.8165 10.1719 50.0959C11.5668 50.24 12.9535 50.3662 14.3402 50.4923C14.2396 50.3206 14.1391 50.1489 14.0468 49.9952C11.3987 48.117 8.76372 46.2436 6.12877 44.3703L6.04112 44.6065C8.5463 46.387 11.0564 48.1543 13.5747 49.9395C12.1748 49.8085 10.7881 49.6824 9.40145 49.5562C8.02977 48.5845 6.6581 47.6128 5.28642 46.6411L5.20365 46.8642C6.44554 47.743 7.68744 48.6218 8.92447 49.5137C7.4099 49.37 5.89534 49.2262 4.38077 49.0825L4.21036 49.5419C6.04291 49.714 7.86233 49.8812 9.69489 50.0533C10.7117 50.7739 11.7155 51.4897 12.7323 52.2103C9.65893 51.9214 6.59868 51.6374 3.5433 51.3402Z" fill="#7482A6"></path> <path d="M21.8092 28.1154C21.5016 27.8294 21.3 27.5527 21.2044 27.2855C21.1084 27.005 21.0988 26.7412 21.1757 26.494C21.2589 26.24 21.399 26.0071 21.596 25.7952C21.7931 25.5833 22.012 25.4301 22.2529 25.3355C22.4939 25.2409 22.7577 25.2313 23.0444 25.3067C23.3243 25.3758 23.618 25.5533 23.9256 25.8393C24.2263 26.119 24.4247 26.399 24.5208 26.6795C24.61 26.9536 24.6196 27.2174 24.5495 27.4709C24.4727 27.7181 24.3357 27.9476 24.1387 28.1595C23.9417 28.3714 23.7195 28.528 23.4723 28.6295C23.2245 28.7177 22.9607 28.7273 22.6808 28.6583C22.4005 28.576 22.1099 28.395 21.8092 28.1154Z" fill="#7482A6"></path> <path d="M42.9777 17.6605L38.7223 9.2228L41.4473 7.84847L45.7027 16.2861L46.1277 16.0718L41.7652 7.42162C40.5776 8.02052 39.3901 8.61943 38.2026 9.21834L42.5651 17.8685L42.9777 17.6605Z" fill="#7482A6"></path> <path d="M47.8817 15.0254L45.7476 9.81773L47.3539 9.15943C47.3739 9.06047 47.3938 8.96151 47.4191 8.8755L45.6573 9.5975L44.3885 6.5014L46.3964 5.67853C46.4293 5.57426 46.4676 5.48295 46.5005 5.37868L43.8707 6.45637L47.5445 15.4208L50.1742 14.3431C50.0776 14.2919 49.981 14.2408 49.8896 14.2025L47.8817 15.0254Z" fill="#7482A6"></path> <path d="M53.1272 6.16323C52.6043 4.55196 50.8757 3.67048 49.2645 4.19341C48.9582 4.2928 48.6692 4.44547 48.4198 4.62944L51.4104 13.8443L51.8498 13.7017L50.6873 10.1196C50.8558 10.0944 51.0066 10.0602 51.153 10.0126C52.7643 9.4897 53.6458 7.76118 53.1272 6.16323ZM52.6744 6.31016C53.1541 7.78827 52.4378 9.34543 51.0796 9.78624C50.9331 9.83378 50.769 9.87232 50.6139 9.89323L48.9025 4.61998C49.036 4.5325 49.1915 4.46732 49.3379 4.41978C50.6962 3.97897 52.1947 4.83206 52.6744 6.31016Z" fill="#7482A6"></path> <path d="M56.8099 11.9292L55.4828 6.45994L57.1698 6.05058C57.2044 5.95575 57.239 5.86091 57.277 5.77968L55.4266 6.22865L54.6376 2.97701L56.7464 2.46531C56.7947 2.36717 56.8462 2.28264 56.8944 2.1845L54.1325 2.85466L56.417 12.2695L59.1789 11.5993C59.091 11.5342 59.0032 11.4691 58.9187 11.4175L56.8099 11.9292Z" fill="#7482A6"></path> <path d="M63.2094 4.89733C63.9283 4.49418 64.3464 3.68253 64.2198 2.82381C64.0544 1.70193 63.0055 0.922556 61.8837 1.08793C61.205 1.18797 60.6584 1.60816 60.36 2.17575L60.6319 2.77247C60.7197 2.02367 61.2397 1.42342 61.9184 1.32338C62.7909 1.19476 63.6019 1.896 63.7489 2.89322C63.8938 3.8766 63.3197 4.782 62.4472 4.91062L62.4819 5.14608C63.9084 4.93579 65.23 6.02876 65.4566 7.56615C65.6832 9.10353 64.7333 10.5313 63.3067 10.7416C62.448 10.8682 61.6168 10.5096 61.0377 9.84492C60.8347 9.62011 60.6651 9.33378 60.5351 9.02747C60.4447 9.1823 60.3523 9.32329 60.2619 9.47813C60.3418 9.63616 60.4473 9.77627 60.5667 9.91433C61.2335 10.6934 62.259 11.1225 63.3393 10.9632C65.0152 10.7162 66.1745 9.17262 65.9275 7.49673C65.7192 6.084 64.5741 5.03578 63.2094 4.89733Z" fill="#7482A6"></path> <path d="M70.3033 0.290766C70.1822 0.448582 70.075 0.605967 69.9538 0.763783C69.2106 3.91023 68.4673 7.05667 67.7386 10.2167L67.9764 10.2093C68.2611 8.99596 68.5462 7.79659 68.8313 6.59722L71.686 6.50905C72.0446 7.68854 72.4031 8.86803 72.7482 10.0619L73.2379 10.0468C72.2692 6.79918 71.2861 3.53798 70.3033 0.290766ZM68.88 6.3576L70.094 1.22167L71.6087 6.27332L68.88 6.3576Z" fill="#7482A6"></path> <path d="M78.2838 0.819784C78.3588 0.740262 78.433 0.674713 78.5081 0.595192L75.6715 0.419862L75.0738 10.0894L75.5349 10.1179C75.7292 6.97391 75.9236 3.82991 76.1179 0.685911L78.2838 0.819784Z" fill="#7482A6"></path> <path d="M84.4691 4.22373C84.7033 2.54599 83.5341 0.997505 81.8564 0.763338C81.5375 0.718827 81.2108 0.729778 80.9061 0.786197L79.5669 10.3812L80.0244 10.4451L80.545 6.71521C80.7075 6.76616 80.8581 6.80132 81.0106 6.8226C82.6884 7.05677 84.2369 5.8876 84.4691 4.22373ZM83.9977 4.15793C83.7829 5.69701 82.4578 6.78429 81.0435 6.58689C80.891 6.5656 80.7266 6.52851 80.5779 6.47949L81.3443 0.988716C81.5026 0.968408 81.6709 0.977765 81.8235 0.999052C83.2378 1.19645 84.2125 2.61885 83.9977 4.15793Z" fill="#7482A6"></path> <path d="M91.4016 2.72345L88.1059 7.5154L87.4216 1.78974L86.9718 1.68422L87.7303 8.07438L85.5223 11.2952L85.754 11.3496L87.7658 8.41345L88.1551 7.85766L91.6333 2.77781L91.4016 2.72345Z" fill="#7482A6"></path> <path d="M96.3271 8.25267C97.151 8.23244 97.9001 7.71046 98.1897 6.89221C98.5681 5.82319 98.0054 4.64384 96.9363 4.26547C96.2897 4.03658 95.61 4.15246 95.0809 4.51465L95.0422 5.16928C95.4699 4.54839 96.2102 4.26094 96.8569 4.48983C97.6884 4.78412 98.0773 5.78315 97.741 6.73338C97.4094 7.67042 96.4785 8.20233 95.6471 7.90804L95.5677 8.1324C96.927 8.61354 97.5842 10.1976 97.0657 11.6625C96.5472 13.1275 95.0399 13.9454 93.6805 13.4643C92.8622 13.1747 92.2952 12.469 92.094 11.6107C92.0197 11.3171 92.0037 10.9847 92.032 10.6531C91.8797 10.7477 91.7321 10.8292 91.5798 10.9238C91.5765 11.1008 91.6043 11.274 91.6453 11.4519C91.8704 12.4523 92.5763 13.3111 93.6058 13.6754C95.2027 14.2407 96.9492 13.4183 97.5144 11.8213C97.9909 10.4752 97.4687 9.01318 96.3271 8.25267Z" fill="#7482A6"></path> <path d="M100.492 9.89615L104.812 7.69714L104.533 7.56667L100.479 9.62718L101.997 6.38061L101.578 6.18491L97.4747 14.9608L97.8932 15.1565L100.07 10.5022L100.594 16.4197L101.089 16.6509L100.492 9.89615Z" fill="#7482A6"></path> <path d="M110.155 10.4139C109.968 10.481 109.793 10.5554 109.605 10.6225C107.278 12.8662 104.95 15.1099 102.627 17.3728L102.831 17.4954C103.727 16.6291 104.616 15.7748 105.505 14.9205L107.953 16.3912C107.616 17.5771 107.279 18.763 106.923 19.9537L107.344 20.206C108.286 16.9508 109.224 13.6763 110.155 10.4139ZM105.675 14.7453L109.476 11.0834L108.016 16.1511L105.675 14.7453Z" fill="#7482A6"></path> <path d="M121.206 18.6541L115.814 24.9854L118.411 16.4946L118.466 16.3213L118.349 16.2215L112.077 23.5866L112.248 23.7319L117.63 17.4113L115.042 25.8914L114.997 26.0737L115.115 26.1736L121.387 18.8084L121.206 18.6541Z" fill="#7482A6"></path> <path d="M116.655 27.3071L120.63 23.3031L121.862 24.5262C121.951 24.516 122.05 24.4958 122.149 24.4757L120.797 23.1342L123.145 20.7696L124.685 22.2984C124.794 22.2881 124.903 22.2779 125.002 22.2775L122.985 20.2752L116.159 27.1505L118.176 29.1528C118.186 29.0439 118.195 28.9349 118.195 28.8359L116.655 27.3071Z" fill="#7482A6"></path> <path d="M126.965 24.2308L126.656 23.8509C124.664 26.5929 122.681 29.3458 120.698 32.0987C120.889 32.0883 121.088 32.0887 121.276 32.098C122.413 31.5872 123.539 31.0853 124.675 30.5745C123.844 31.7035 123.031 32.8346 122.219 33.9656C122.418 33.9661 122.617 33.9665 122.797 33.9649C125.758 32.6355 128.71 31.315 131.661 29.9945L131.501 29.7991C128.696 31.0549 125.9 32.3216 123.084 33.5863C123.907 32.4464 124.719 31.3153 125.531 30.1843C127.064 29.4951 128.598 28.8059 130.131 28.1167L129.981 27.9321C128.593 28.5566 127.206 29.1811 125.81 29.7948C126.702 28.5624 127.594 27.3301 128.486 26.0977L128.177 25.7178C127.099 27.2098 126.032 28.693 124.954 30.185C123.817 30.6958 122.691 31.1977 121.554 31.7085C123.362 29.2064 125.159 26.7132 126.965 24.2308Z" fill="#7482A6"></path> <path d="M137.7 51.6067C138.102 51.4862 138.443 51.4523 138.722 51.5051C139.012 51.5642 139.245 51.6895 139.419 51.8808C139.596 52.0811 139.726 52.3199 139.809 52.597C139.892 52.8742 139.913 53.1406 139.873 53.3962C139.833 53.6519 139.708 53.8843 139.497 54.0934C139.296 54.2999 138.994 54.4634 138.592 54.5839C138.199 54.7018 137.857 54.7312 137.566 54.6721C137.285 54.6104 137.052 54.4851 136.869 54.2965C136.695 54.1051 136.566 53.8708 136.483 53.5937C136.4 53.3165 136.377 53.0456 136.415 52.781C136.464 52.5227 136.589 52.2903 136.791 52.0838C137.003 51.8837 137.307 51.7246 137.7 51.6067Z" fill="#7482A6"></path> </svg> 